<svg xmlns="http://www.w3.org/2000/svg" xmlns:xlink="http://www.w3.org/1999/xlink" width="220" height="200" viewBox="0 0 220 200">
  <defs>
    <clipPath id="clip-path">
      <rect id="Rectangle_62" data-name="Rectangle 62" width="220" height="200" transform="translate(590 180)" fill="#d9e0e6"/>
    </clipPath>
  </defs>
  <g id="acesso-lupa" transform="translate(-590 -180)" clip-path="url(#clip-path)">
    <g id="_1191658" data-name="1191658" transform="translate(597.931 179.801)">
      <path id="Path_54" data-name="Path 54" d="M172.573,143.366,161.219,132l-24.2,26.274L148.2,169.462a102.288,102.288,0,0,0,24.371-26.1" fill="#eaecf0"/>
      <path id="Path_55" data-name="Path 55" d="M195.1,165.905l-22.527-22.54a102.288,102.288,0,0,1-24.371,26.1l21.672,21.683a17.277,17.277,0,0,0,24.443,0l.783-.783a17.3,17.3,0,0,0,0-24.457Zm0,0" fill="#bbb8c7"/>
      <path id="Path_56" data-name="Path 56" d="M28.66,28.939A84.373,84.373,0,0,0,147.789,148.454,84.373,84.373,0,0,0,28.66,28.939Zm0,0" fill="#0082a0"/>
      <path id="Path_57" data-name="Path 57" d="M149.708,113.57a66.83,66.83,0,0,0-14.629-71.95,66.106,66.106,0,0,0-93.71,0A66.689,66.689,0,0,0,22.8,99.324" fill="#eaecf0"/>
      <path id="Path_58" data-name="Path 58" d="M117.982,96.024V148.2a66.744,66.744,0,0,0,30.986-32.844Zm0,0" fill="#49e298"/>
      <path id="Path_59" data-name="Path 59" d="M86.257,99.687v55.527q.981.033,1.969.031a65.745,65.745,0,0,0,29.757-7.049V96.023Zm0,0" fill="#f26a5b"/>
      <path id="Path_60" data-name="Path 60" d="M22.952,100.19a66.642,66.642,0,0,0,31.579,45.847V73.422Zm0,0" fill="#5fccf5"/>
      <path id="Path_61" data-name="Path 61" d="M54.532,73.422v72.615a65.566,65.566,0,0,0,31.725,9.177V99.686Zm0,0" fill="#ffd36c"/>
      <path id="Path_62" data-name="Path 62" d="M197.92,163.086l-32.126-32.144A88.836,88.836,0,0,0,150.613,26.125,88.224,88.224,0,0,0,0,88.7a88.215,88.215,0,0,0,136.143,74.342l30.911,30.926a21.263,21.263,0,0,0,30.082,0l.785-.785a21.314,21.314,0,0,0,0-30.095ZM31.484,145.638a80.8,80.8,0,0,1,0-113.885,80.058,80.058,0,0,1,113.482,0,80.8,80.8,0,0,1,0,113.885,80.058,80.058,0,0,1-113.482,0Zm119.129,5.63a89.28,89.28,0,0,0,10.929-13.3l5.893,5.9a98.424,98.424,0,0,1-18.9,20.286L142.7,158.32A89.629,89.629,0,0,0,150.612,151.268Zm41.667,36.273-.783.785a13.29,13.29,0,0,1-18.8,0l-18.495-18.5c2.73-2.241,5.361-4.629,7.859-7.135a106.271,106.271,0,0,0,11.1-13.1l19.124,19.133a13.326,13.326,0,0,1,0,18.819Zm0,0"/>
      <path id="Path_63" data-name="Path 63" d="M152.912,115.947a4.034,4.034,0,0,0,.5-.9A70.695,70.695,0,0,0,137.9,38.806a70.093,70.093,0,0,0-99.358,0A70.974,70.974,0,0,0,18.869,99.953a3.978,3.978,0,0,0,.1.472,3.648,3.648,0,0,0,.051.445A70.629,70.629,0,0,0,52.5,149.465a.033.033,0,0,1,.009.006A69.939,69.939,0,0,0,86.142,159.2h0c.656.022,1.336.033,2.082.033a69.292,69.292,0,0,0,31.531-7.465.129.129,0,0,1,.02-.011,70.718,70.718,0,0,0,32.848-34.815,4.033,4.033,0,0,0,.287-.994ZM44.193,44.436a62.119,62.119,0,0,1,88.062,0A62.714,62.714,0,0,1,147,109.428l-26.91-16.786a.2.2,0,0,1-.023-.016c-.022-.012-.044-.025-.065-.039l-.033-.019c-.016-.009-.031-.017-.045-.026a.177.177,0,0,1-.03-.016l-.075-.04-.031-.016-.048-.023-.023-.012-.086-.039c-.008,0-.017-.008-.026-.012-.055-.025-.111-.048-.165-.07l-.017-.006c-.058-.022-.117-.044-.176-.064l-.006,0a3.954,3.954,0,0,0-1.025-.2h0q-.061,0-.121,0l-.011,0h-.16c-.02,0-.04,0-.059,0h-.03l-.092,0h-.008c-.084,0-.167.014-.251.023L87.489,95.53,57.073,70.349s0,0,0,0-.028-.023-.042-.034a.086.086,0,0,0-.014-.011c-.014-.011-.028-.023-.042-.033l-.014-.012c-.012-.009-.026-.019-.039-.03a.1.1,0,0,1-.02-.016l-.034-.023-.025-.019-.031-.022-.03-.02-.025-.017-.037-.023a.056.056,0,0,0-.016-.011c-.016-.011-.031-.02-.047-.03l-.008-.006-.053-.033-.006,0a4.108,4.108,0,0,0-.575-.285.017.017,0,0,0-.009,0,.532.532,0,0,0-.053-.02l-.019-.008-.042-.016-.03-.011-.03-.009c-.014-.006-.03-.011-.044-.016l-.016-.006a4,4,0,0,0-1.989-.126l0,0c-.022,0-.044.008-.065.012a.006.006,0,0,1,0,0l-.064.014-.008,0-.061.014-.008,0-.062.017,0,0c-.022,0-.044.011-.065.017h0a3.975,3.975,0,0,0-.793.322l0,0c-.019.009-.037.019-.056.03a.088.088,0,0,1-.012.008l-.045.025-.023.014-.037.022-.025.016a.371.371,0,0,1-.033.02l-.036.023-.02.012c-.014.011-.03.02-.044.03l-.014.009-.05.034-.006,0a3.839,3.839,0,0,0-.307.238L26.055,92.33A62.95,62.95,0,0,1,44.193,44.436ZM27.305,101.727l23.237-19.7v56.5a63.323,63.323,0,0,1-6.35-5.574,62.133,62.133,0,0,1-16.888-31.23ZM58.519,81.9,82.27,101.562v49.411a61.909,61.909,0,0,1-23.751-7.252Zm31.725,21.342L114,100.5v45.193a61.255,61.255,0,0,1-23.751,5.535Zm42.011,29.716a62.847,62.847,0,0,1-10.285,8.357v-38.1l21.892,13.654A62.159,62.159,0,0,1,132.255,132.957Zm0,0"/>
      <path id="Path_64" data-name="Path 64" d="M38.743,67.256a3.988,3.988,0,0,1-2.581-7.029L51.815,46.959a3.987,3.987,0,0,1,5.121-.03l9.226,7.638a3.988,3.988,0,0,1-5.087,6.143L54.424,55.2l-13.1,11.109a3.969,3.969,0,0,1-2.576.945Zm0,0"/>
      <path id="Path_65" data-name="Path 65" d="M72.864,69.52a4.014,4.014,0,0,1-1.523-.307,3.963,3.963,0,0,1-1.3-.861,4.059,4.059,0,0,1-.5-.606,3.993,3.993,0,0,1-.593-2.99,4.011,4.011,0,0,1,.593-1.436,3.789,3.789,0,0,1,.5-.606,4.156,4.156,0,0,1,.606-.494,4.253,4.253,0,0,1,.69-.368,3.771,3.771,0,0,1,.744-.227,3.987,3.987,0,0,1,1.561,0,3.771,3.771,0,0,1,.744.227,4.252,4.252,0,0,1,.69.368,3.921,3.921,0,0,1,.606.494,3.788,3.788,0,0,1,.5.606,4.011,4.011,0,0,1,.593,1.436,4.017,4.017,0,0,1-.593,2.99,3.916,3.916,0,0,1-1.1,1.1,4.243,4.243,0,0,1-.69.366,4.013,4.013,0,0,1-1.526.307Zm0,0"/>
      <path id="Path_66" data-name="Path 66" d="M140.156,92.684a3.949,3.949,0,0,1-2.106-.606L121.228,81.586,92.259,84.931a3.985,3.985,0,0,1-3-.889l-8.336-6.9A3.987,3.987,0,1,1,86.009,71l7.026,5.817L121.7,73.5a3.972,3.972,0,0,1,2.568.578l18,11.231a3.988,3.988,0,0,1-2.115,7.371Zm0,0"/>
    </g>
  </g>
</svg>
