<svg xmlns="http://www.w3.org/2000/svg" xmlns:xlink="http://www.w3.org/1999/xlink" width="100" height="44" viewBox="0 0 100 44">
  <defs>
    <clipPath id="clip-path">
      <rect id="Marca" width="100" height="44" transform="translate(230 18)" fill="#a9aeb3"/>
    </clipPath>
  </defs>
  <g id="logo" transform="translate(-230 -18)" clip-path="url(#clip-path)">
    <g id="_1191658" data-name="1191658" transform="translate(257.545 17.956)">
      <path id="Path_28" data-name="Path 28" d="M37.966,31.54l-2.5-2.5-5.323,5.78L32.6,37.282a22.5,22.5,0,0,0,5.362-5.741" fill="#eaecf0"/>
      <path id="Path_29" data-name="Path 29" d="M42.922,36.5,37.966,31.54A22.5,22.5,0,0,1,32.6,37.282l4.768,4.77a3.8,3.8,0,0,0,5.377,0l.172-.172a3.806,3.806,0,0,0,0-5.38Zm0,0" fill="#bbb8c7"/>
      <path id="Path_30" data-name="Path 30" d="M6.305,6.367A18.562,18.562,0,0,0,32.514,32.66,18.562,18.562,0,0,0,6.305,6.367Zm0,0" fill="#0082a0"/>
      <path id="Path_31" data-name="Path 31" d="M32.936,24.985A14.7,14.7,0,0,0,29.717,9.156a14.543,14.543,0,0,0-20.616,0A14.672,14.672,0,0,0,5.017,21.851" fill="#eaecf0"/>
      <path id="Path_32" data-name="Path 32" d="M25.956,21.125V32.6a14.684,14.684,0,0,0,6.817-7.226Zm0,0" fill="#49e298"/>
      <path id="Path_33" data-name="Path 33" d="M18.977,21.931V34.147q.216.007.433.007A14.464,14.464,0,0,0,25.956,32.6V21.125Zm0,0" fill="#f26a5b"/>
      <path id="Path_34" data-name="Path 34" d="M5.05,22.042A14.661,14.661,0,0,0,12,32.128V16.153Zm0,0" fill="#5fccf5"/>
      <path id="Path_35" data-name="Path 35" d="M12,16.153V32.128a14.425,14.425,0,0,0,6.98,2.019V21.931Zm0,0" fill="#ffd36c"/>
      <path id="Path_36" data-name="Path 36" d="M43.542,35.879l-7.068-7.072a19.544,19.544,0,0,0-3.34-23.06A19.409,19.409,0,0,0,0,19.513,19.407,19.407,0,0,0,29.951,35.868l6.8,6.8a4.678,4.678,0,0,0,6.618,0l.173-.173a4.689,4.689,0,0,0,0-6.621ZM6.926,32.04a17.777,17.777,0,0,1,0-25.055,17.613,17.613,0,0,1,24.966,0,17.777,17.777,0,0,1,0,25.055,17.613,17.613,0,0,1-24.966,0Zm26.208,1.239a19.642,19.642,0,0,0,2.4-2.926l1.3,1.3a21.653,21.653,0,0,1-4.159,4.463L31.395,34.83A19.718,19.718,0,0,0,33.135,33.279Zm9.167,7.98-.172.173a2.924,2.924,0,0,1-4.137,0l-4.069-4.071c.6-.493,1.179-1.018,1.729-1.57a23.38,23.38,0,0,0,2.442-2.882L42.3,37.119a2.932,2.932,0,0,1,0,4.14Zm0,0"/>
      <path id="Path_37" data-name="Path 37" d="M33.641,25.508a.887.887,0,0,0,.11-.2A15.553,15.553,0,0,0,30.339,8.537a15.421,15.421,0,0,0-21.859,0A15.614,15.614,0,0,0,4.151,21.99a.875.875,0,0,0,.023.1.8.8,0,0,0,.011.1,15.538,15.538,0,0,0,7.364,10.691h0a15.387,15.387,0,0,0,7.4,2.14h0c.144,0,.294.007.458.007a15.244,15.244,0,0,0,6.937-1.642l0,0a15.558,15.558,0,0,0,7.227-7.659.887.887,0,0,0,.063-.219ZM9.722,9.776a13.666,13.666,0,0,1,19.374,0,13.8,13.8,0,0,1,3.244,14.3l-5.92-3.693-.005,0-.014-.009-.007,0-.01-.006-.007,0-.016-.009-.007,0-.011-.005-.005,0-.019-.009-.006,0-.036-.015h0l-.039-.014h0a.87.87,0,0,0-.225-.044H25.9l-.055.005-6.6.762-6.691-5.54h0l-.009-.008,0,0-.009-.007,0,0-.009-.007,0,0-.008-.005-.005,0-.007,0-.007,0-.005,0-.008-.005,0,0-.01-.007h0L12.45,15.4h0a.9.9,0,0,0-.126-.063h0l-.012,0,0,0-.009,0-.007,0-.007,0-.01,0h0a.88.88,0,0,0-.438-.028h0l-.014,0h0l-.014,0h0l-.013,0h0l-.014,0h0l-.014,0h0a.874.874,0,0,0-.174.071h0l-.012.007,0,0-.01.005-.005,0-.008,0-.005,0-.007,0-.008.005,0,0-.01.007,0,0-.011.008h0a.844.844,0,0,0-.068.052L5.732,20.313A13.849,13.849,0,0,1,9.723,9.776ZM6.007,22.38l5.112-4.334V30.477a13.931,13.931,0,0,1-1.4-1.226A13.669,13.669,0,0,1,6.007,22.38Zm6.867-4.362L18.1,22.344v10.87a13.62,13.62,0,0,1-5.225-1.6Zm6.98,4.7,5.225-.6v9.942a13.476,13.476,0,0,1-5.225,1.218ZM29.1,29.251a13.826,13.826,0,0,1-2.263,1.839V22.707l4.816,3A13.675,13.675,0,0,1,29.1,29.251Zm0,0"/>
      <path id="Path_38" data-name="Path 38" d="M8.524,14.8a.877.877,0,0,1-.568-1.546L11.4,10.331a.877.877,0,0,1,1.127-.007L14.556,12a.877.877,0,0,1-1.119,1.351l-1.463-1.212L9.09,14.588a.873.873,0,0,1-.567.208Zm0,0"/>
      <path id="Path_39" data-name="Path 39" d="M16.03,15.294a.883.883,0,0,1-.335-.068.872.872,0,0,1-.285-.189A.893.893,0,0,1,15.3,14.9a.878.878,0,0,1-.131-.658.882.882,0,0,1,.131-.316.833.833,0,0,1,.109-.133.914.914,0,0,1,.133-.109.936.936,0,0,1,.152-.081.83.83,0,0,1,.164-.05.877.877,0,0,1,.343,0,.83.83,0,0,1,.164.05.936.936,0,0,1,.152.081.863.863,0,0,1,.133.109.833.833,0,0,1,.109.133.882.882,0,0,1,.131.316.884.884,0,0,1-.131.658.861.861,0,0,1-.242.242.934.934,0,0,1-.152.081.883.883,0,0,1-.336.068Zm0,0"/>
      <path id="Path_40" data-name="Path 40" d="M30.834,20.391a.869.869,0,0,1-.463-.133l-3.7-2.308-6.373.736a.877.877,0,0,1-.66-.2L17.8,16.971a.877.877,0,1,1,1.119-1.351l1.546,1.28,6.306-.728a.874.874,0,0,1,.565.127L31.3,18.769a.877.877,0,0,1-.465,1.622Zm0,0"/>
    </g>
  </g>
</svg>
