<svg xmlns="http://www.w3.org/2000/svg" xmlns:xlink="http://www.w3.org/1999/xlink" width="68" height="68" viewBox="0 0 68 68">
  <defs>
    <clipPath id="clip-path">
      <rect id="Rectangle_65" data-name="Rectangle 65" width="68" height="68" fill="#fff" stroke="#707070" stroke-width="1"/>
    </clipPath>
    <clipPath id="clip-path-2">
      <rect id="Rectangle_62" data-name="Rectangle 62" width="68" height="61.818" fill="#d9e0e6"/>
    </clipPath>
  </defs>
  <g id="robot-img" clip-path="url(#clip-path)">
    <g id="acesso-lupa" transform="translate(0 3.091)" clip-path="url(#clip-path-2)">
      <g id="_1191658" data-name="1191658" transform="translate(2.451 0.024)">
        <path id="Path_54" data-name="Path 54" d="M42.351,44.313,45.861,40.8l7.48,8.121-3.456,3.458a31.616,31.616,0,0,1-7.533-8.067" transform="translate(-32.594 -0.086)" fill="#eaecf0"/>
        <path id="Path_55" data-name="Path 55" d="M47.373,51.28l6.963-6.967a31.616,31.616,0,0,0,7.533,8.067l-6.7,6.7a5.34,5.34,0,0,1-7.555,0l-.242-.242a5.347,5.347,0,0,1,0-7.559Zm0,0" transform="translate(-44.579 -0.086)" fill="#bbb8c7"/>
        <path id="Path_56" data-name="Path 56" d="M45.68,8.945A26.079,26.079,0,1,1,8.8,9a26.079,26.079,0,0,1,36.881-.06Zm0,0" transform="translate(8.559 -0.086)" fill="#0082a0"/>
        <path id="Path_57" data-name="Path 57" d="M8.264,35.1a20.657,20.657,0,0,1,4.522-22.239A20.495,20.495,0,0,1,47.49,30.7" transform="translate(8.561 -0.086)" fill="#eaecf0"/>
        <path id="Path_58" data-name="Path 58" d="M46.045,29.68V45.807a20.63,20.63,0,0,1-9.577-10.152Zm0,0" transform="translate(-19.414 -0.086)" fill="#49e298"/>
        <path id="Path_59" data-name="Path 59" d="M36.467,30.812V47.975q-.3.01-.609.01a20.321,20.321,0,0,1-9.2-2.179V29.68Zm0,0" transform="translate(-0.031 -0.086)" fill="#f26a5b"/>
        <path id="Path_60" data-name="Path 60" d="M16.855,30.968A20.6,20.6,0,0,1,7.094,45.139V22.694Zm0,0" transform="translate(39.149 -0.086)" fill="#5fccf5"/>
        <path id="Path_61" data-name="Path 61" d="M26.661,22.694V45.139a20.266,20.266,0,0,1-9.806,2.837V30.812Zm0,0" transform="translate(19.581 -0.086)" fill="#ffd36c"/>
        <path id="Path_62" data-name="Path 62" d="M1.922,50.408l9.93-9.935a27.255,27.255,0,1,1,9.165,9.922l-9.554,9.559a6.572,6.572,0,0,1-9.3,0l-.243-.243a6.588,6.588,0,0,1,0-9.3Zm51.444-5.393A24.847,24.847,0,1,0,18.29,9.815a24.847,24.847,0,1,0,35.076,35.2Zm-36.822,1.74a27.6,27.6,0,0,1-3.378-4.111l-1.821,1.824a30.422,30.422,0,0,0,5.842,6.27l1.8-1.8a27.7,27.7,0,0,1-2.446-2.18ZM3.666,57.967l.242.243a4.108,4.108,0,0,0,5.811,0l5.717-5.718c-.844-.693-1.657-1.431-2.429-2.205a32.847,32.847,0,0,1-3.431-4.049L3.664,52.151a4.119,4.119,0,0,0,0,5.817Zm0,0" transform="translate(0 -0.086)"/>
        <path id="Path_63" data-name="Path 63" d="M7.288,35.838a1.247,1.247,0,0,1-.155-.278A21.733,21.733,0,0,1,42.638,11.995a21.937,21.937,0,0,1,6.081,18.9,1.23,1.23,0,0,1-.031.146,1.128,1.128,0,0,1-.016.138A21.831,21.831,0,0,1,38.324,46.2l0,0a21.618,21.618,0,0,1-10.4,3.007h0c-.2.007-.413.01-.644.01a21.417,21.417,0,0,1-9.746-2.307l-.006,0A21.858,21.858,0,0,1,7.377,36.146a1.247,1.247,0,0,1-.089-.307Zm33.6-22.1A19.275,19.275,0,0,0,9.115,33.823l8.318-5.188.007,0,.02-.012.01-.006.014-.008.009,0,.023-.012.01,0,.015-.007.007,0,.027-.012s.005,0,.008,0l.051-.022.005,0,.054-.02h0a1.222,1.222,0,0,1,.317-.062h.149a.731.731,0,0,1,.078.007l9.271,1.07,9.4-7.783h0l.013-.011,0,0,.013-.01,0,0,.012-.009.006,0,.011-.007.008-.006.01-.007L37,21.676l.008-.005.011-.007,0,0,.015-.009,0,0,.016-.01h0a1.27,1.27,0,0,1,.178-.088h0l.016-.006.006,0,.013,0,.009,0,.009,0,.014,0,0,0a1.236,1.236,0,0,1,.615-.039h0a.11.11,0,0,1,.02,0l.02,0h0l.019,0h0l.019.005h0a.077.077,0,0,1,.02.005h0a1.229,1.229,0,0,1,.245.1h0l.017.009,0,0,.014.008.007,0,.011.007.008,0,.01.006.011.007.006,0,.014.009,0,0,.015.011h0a1.187,1.187,0,0,1,.095.074l8,6.782a19.457,19.457,0,0,0-5.606-14.8Zm5.22,17.708-7.182-6.089V42.817a19.573,19.573,0,0,0,1.963-1.723,19.2,19.2,0,0,0,5.22-9.653Zm-9.648-6.128-7.341,6.077V46.664a19.136,19.136,0,0,0,7.341-2.242Zm-9.806,6.6-7.343-.848V45.032a18.933,18.933,0,0,0,7.341,1.711ZM13.672,41.1a19.425,19.425,0,0,0,3.179,2.583V31.9l-6.767,4.22A19.213,19.213,0,0,0,13.672,41.1Zm0,0" transform="translate(8.547 -0.086)"/>
        <path id="Path_64" data-name="Path 64" d="M19.664,20.788a1.233,1.233,0,0,0,.8-2.173l-4.838-4.1a1.232,1.232,0,0,0-1.583-.009l-2.852,2.361a1.233,1.233,0,1,0,1.572,1.9l2.056-1.7L18.866,20.5a1.227,1.227,0,0,0,.8.292Zm0,0" transform="translate(31.459 -0.086)"/>
        <path id="Path_65" data-name="Path 65" d="M22.52,21.488a1.241,1.241,0,0,0,.471-.095,1.225,1.225,0,0,0,.4-.266,1.255,1.255,0,0,0,.155-.187,1.234,1.234,0,0,0,0-1.368,1.171,1.171,0,0,0-.155-.187,1.284,1.284,0,0,0-.187-.153,1.315,1.315,0,0,0-.213-.114,1.166,1.166,0,0,0-.23-.07,1.232,1.232,0,0,0-.482,0,1.166,1.166,0,0,0-.23.07,1.314,1.314,0,0,0-.213.114,1.212,1.212,0,0,0-.187.153,1.171,1.171,0,0,0-.155.187,1.234,1.234,0,0,0,0,1.368,1.21,1.21,0,0,0,.34.34,1.311,1.311,0,0,0,.213.113,1.24,1.24,0,0,0,.472.095Zm0,0" transform="translate(18.057 -0.086)"/>
        <path id="Path_66" data-name="Path 66" d="M25.8,28.648a1.221,1.221,0,0,0,.651-.187l5.2-3.243L40.6,26.251a1.232,1.232,0,0,0,.927-.275l2.577-2.133a1.232,1.232,0,0,0-1.572-1.9l-2.172,1.8L31.5,22.718a1.228,1.228,0,0,0-.794.179l-5.564,3.471a1.233,1.233,0,0,0,.654,2.278Zm0,0" transform="translate(-6.022 -0.086)"/>
      </g>
    </g>
  </g>
</svg>
